<svg width="346" height="346" viewBox="0 0 346 346" fill="none" xmlns="http://www.w3.org/2000/svg">
<g clip-path="url(#clip0_294_10)">
<path d="M0.00023507 173.001C0.0120389 218.88 18.2426 262.876 50.6838 295.317C83.125 327.758 127.121 345.988 173 346C218.879 345.988 262.875 327.758 295.317 295.317C327.758 262.876 345.988 218.88 346 173.001C345.988 127.123 327.758 83.1266 295.317 50.6856C262.875 18.2446 218.879 0.014236 173 0.00243233C150.271 -0.0350658 127.758 4.41408 106.752 13.0948C85.7454 21.7755 66.6591 34.5171 50.5871 50.589C34.5151 66.6608 21.7735 85.747 13.0927 106.753C4.41192 127.759 -0.0372634 150.272 0.00023507 173.001Z" fill="url(#paint0_linear_294_10)"/>
<path d="M265.679 237.361C249.203 255.382 219.854 283.7 218.31 284.73C214.54 288.278 209.584 290.297 204.408 290.393C200.416 290.379 196.519 289.175 193.215 286.935C189.911 284.696 187.349 281.522 185.857 277.819C184.365 274.117 184.011 270.054 184.839 266.149C185.667 262.244 187.64 258.675 190.506 255.897C191.021 255.382 220.369 227.578 235.816 210.587C242.957 202.529 246.654 191.993 246.113 181.239C245.752 175.462 244.192 169.824 241.532 164.683C238.873 159.541 235.173 155.01 230.667 151.376C218.31 141.079 194.625 138.505 179.694 151.891C170.941 160.129 160.128 171.457 159.613 171.972C155.995 175.863 150.978 178.158 145.667 178.351C140.357 178.544 135.187 176.62 131.295 173.001C127.403 169.383 125.108 164.366 124.915 159.055C124.722 153.745 126.646 148.575 130.265 144.683C130.78 144.168 142.622 131.296 152.92 122.028C167.315 109.545 185.68 102.587 204.734 102.399C223.787 102.21 242.286 108.803 256.926 120.999C265.428 128.158 272.406 136.951 277.447 146.856C282.489 156.761 285.49 167.578 286.274 178.665C287.094 189.342 285.687 200.072 282.141 210.176C278.596 220.28 272.99 229.537 265.679 237.361ZM144.682 238.906C125.86 239.05 107.604 232.478 93.1938 220.37C84.6919 213.211 77.7136 204.418 72.6724 194.513C67.6311 184.607 64.6296 173.791 63.8456 162.704C63.1893 152.041 64.6734 141.355 68.2105 131.274C71.7475 121.194 77.2659 111.923 84.4408 104.008C100.917 85.9871 130.265 57.6688 131.81 56.6391C133.703 54.8135 135.937 53.3787 138.385 52.4165C140.833 51.4544 143.446 50.9838 146.076 51.0316C148.705 51.0794 151.3 51.6447 153.711 52.6952C156.122 53.7457 158.303 55.2608 160.128 57.154C161.954 59.0472 163.389 61.2814 164.351 63.7291C165.313 66.1769 165.784 68.7901 165.736 71.4197C165.688 74.0493 165.123 76.6437 164.072 79.0549C163.022 81.466 161.507 83.6466 159.613 85.4722C159.099 85.9871 129.75 113.79 114.304 130.781C107.163 138.84 103.466 149.376 104.006 160.129C104.368 165.906 105.928 171.545 108.587 176.686C111.247 181.827 114.947 186.359 119.453 189.992C131.81 200.29 155.494 202.864 170.426 189.477C179.179 181.239 189.991 169.912 190.506 169.397C192.298 167.47 194.452 165.915 196.845 164.82C199.238 163.726 201.823 163.113 204.452 163.017C207.082 162.922 209.705 163.345 212.171 164.263C214.637 165.181 216.898 166.576 218.825 168.367C220.752 170.159 222.307 172.313 223.402 174.706C224.496 177.099 225.109 179.684 225.205 182.313C225.3 184.943 224.877 187.566 223.959 190.032C223.041 192.498 221.646 194.759 219.854 196.686C219.34 197.201 207.497 210.072 197.2 219.34C182.668 232.053 163.989 239.012 144.682 238.906Z" fill="white"/>
</g>
<defs>
<linearGradient id="paint0_linear_294_10" x1="173.028" y1="345.951" x2="173.028" y2="-87.0833" gradientUnits="userSpaceOnUse">
<stop stop-color="#A475C4"/>
<stop offset="1" stop-color="#DECAFF"/>
</linearGradient>
<clipPath id="clip0_294_10">
<rect width="346" height="346" fill="white"/>
</clipPath>
</defs>
</svg>
